<svg width="18" height="18" viewBox="0 0 18 18" fill="none" xmlns="http://www.w3.org/2000/svg">
<path fill-rule="evenodd" clip-rule="evenodd" d="M7.63507 0.67917C8.52212 0.384725 9.47806 0.384725 10.3651 0.67917C11.2485 0.972397 11.9421 1.66784 12.6389 2.64496C13.3334 3.61884 14.1007 4.97672 15.0899 6.72708L15.1288 6.79581C16.1181 8.54644 16.8855 9.90425 17.3637 11.0054C17.8443 12.1119 18.0836 13.0673 17.8926 13.9851C17.7004 14.9092 17.2262 15.7496 16.5357 16.3847C15.8469 17.0183 14.909 17.2856 13.7281 17.414C12.5538 17.5417 11.0178 17.5417 9.04077 17.5417H9.04071H8.95946H8.9594C6.9824 17.5417 5.44635 17.5417 4.2721 17.414C3.09114 17.2856 2.15324 17.0183 1.46443 16.3847C0.773934 15.7496 0.299814 14.9092 0.107542 13.9851C-0.08342 13.0673 0.155915 12.1119 0.636461 11.0054C1.11468 9.90425 1.88204 8.54643 2.8714 6.7958L2.91023 6.72708L2.91024 6.72707C3.89943 4.97671 4.66681 3.61883 5.3613 2.64496C6.0581 1.66784 6.7517 0.972397 7.63507 0.67917ZM8.16675 13.1667C8.16675 12.7064 8.53818 12.3333 8.99636 12.3333H9.00381C9.46199 12.3333 9.83341 12.7064 9.83341 13.1667C9.83341 13.6269 9.46199 14 9.00381 14H8.99636C8.53818 14 8.16675 13.6269 8.16675 13.1667ZM8.16675 9.83334C8.16675 10.2936 8.53984 10.6667 9.00008 10.6667C9.46032 10.6667 9.83342 10.2936 9.83342 9.83334V6.5C9.83342 6.03977 9.46032 5.66667 9.00008 5.66667C8.53984 5.66667 8.16675 6.03977 8.16675 6.5L8.16675 9.83334Z" fill="#F4C621"/>
</svg>
