<svg width="16" height="24" viewBox="0 0 16 24" fill="none" xmlns="http://www.w3.org/2000/svg">
<path d="M7 22.7333C7 23.2856 7.44772 23.7333 8 23.7333C8.55229 23.7333 9 23.2856 9 22.7333L7 22.7333ZM8.70711 0.559502C8.31658 0.168978 7.68342 0.168978 7.29289 0.559502L0.928932 6.92347C0.538409 7.31399 0.538409 7.94715 0.928933 8.33768C1.31946 8.7282 1.95262 8.7282 2.34315 8.33768L8 2.68082L13.6569 8.33768C14.0474 8.7282 14.6805 8.7282 15.0711 8.33768C15.4616 7.94715 15.4616 7.31399 15.0711 6.92346L8.70711 0.559502ZM9 22.7333L9 1.26661L7 1.26661L7 22.7333L9 22.7333Z" fill="white"/>
</svg>
