<svg width="58" height="52" viewBox="0 0 58 52" fill="none" xmlns="http://www.w3.org/2000/svg">
<rect width="58" height="52" rx="8" fill="#CBD3DD"/>
<path d="M24.9756 31.5304C25.0969 32.0692 24.7584 32.6043 24.2196 32.7256C23.3521 32.9208 22.7102 33.1546 22.3107 33.3832C22.2308 33.4289 22.169 33.4691 22.1216 33.5033C22.1396 33.5163 22.1596 33.5301 22.1818 33.5449C22.4638 33.7321 22.9379 33.9396 23.6135 34.1293C24.9507 34.5047 26.8554 34.75 29 34.75C31.1446 34.75 33.0493 34.5047 34.3865 34.1293C35.0621 33.9396 35.5362 33.7321 35.8182 33.5449C35.8404 33.5302 35.8604 33.5163 35.8784 33.5033C35.831 33.4691 35.7692 33.4289 35.6893 33.3832C35.2898 33.1546 34.6479 32.9208 33.7804 32.7256C33.2416 32.6043 32.9031 32.0692 33.0244 31.5304C33.1457 30.9916 33.6808 30.6531 34.2196 30.7744C35.1811 30.9908 36.0391 31.2791 36.6824 31.6472C37.2542 31.9743 38 32.567 38 33.5036C38 34.3295 37.4136 34.8864 36.9244 35.2111C36.3968 35.5614 35.6994 35.838 34.9272 36.0548C33.3689 36.4923 31.2737 36.75 29 36.75C26.7263 36.75 24.6311 36.4923 23.0728 36.0548C22.3006 35.838 21.6032 35.5614 21.0756 35.2111C20.5864 34.8864 20 34.3295 20 33.5036C20 32.567 20.7458 31.9743 21.3176 31.6472C21.9609 31.2791 22.8189 30.9908 23.7804 30.7744C24.3192 30.6531 24.8543 30.9916 24.9756 31.5304Z" fill="#1D2126"/>
<path fill-rule="evenodd" clip-rule="evenodd" d="M29.0005 15.25C25.9496 15.25 23.0521 17.1049 21.8416 20.0157C20.7146 22.7256 21.3273 25.035 22.5927 27.0023C23.6255 28.6079 25.1325 30.0411 26.4769 31.3198C26.7324 31.5628 26.982 31.8002 27.2214 32.0322L27.223 32.0338C27.7003 32.4935 28.3377 32.75 29.0005 32.75C29.6633 32.75 30.3008 32.4935 30.7781 32.0337C31.0042 31.8159 31.2392 31.5932 31.4795 31.3655L31.4802 31.3648L31.4806 31.3645C32.8394 30.0769 34.367 28.6292 35.4106 27.0032C36.6745 25.034 37.285 22.7223 36.1595 20.0157C34.949 17.1049 32.0514 15.25 29.0005 15.25ZM29 20C27.3431 20 26 21.3431 26 23C26 24.6569 27.3431 26 29 26C30.6569 26 32 24.6569 32 23C32 21.3431 30.6569 20 29 20Z" fill="#1D2126"/>
</svg>
