<svg width="20" height="20" viewBox="0 0 20 20" fill="none" xmlns="http://www.w3.org/2000/svg">
<path d="M4.43107 1.0721C4.90331 1.1697 5.27939 1.48699 5.51305 1.90618L6.2574 3.24155C6.53157 3.73339 6.7623 4.14729 6.91297 4.5071C7.07281 4.88878 7.16774 5.26516 7.12434 5.6813C7.08095 6.09743 6.91041 6.44613 6.67526 6.78662C6.45359 7.1076 6.14242 7.46499 5.77267 7.88968L4.6785 9.1465C4.48243 9.37172 4.38439 9.48433 4.37543 9.62508C4.36647 9.76583 4.44682 9.88605 4.60752 10.1265C5.97718 12.1757 7.82313 14.0223 9.87404 15.3931C10.1145 15.5538 10.2347 15.6342 10.3755 15.6252C10.5162 15.6163 10.6288 15.5182 10.854 15.3222L12.1109 14.2279C12.5356 13.8582 12.893 13.547 13.214 13.3253C13.5545 13.0902 13.9032 12.9197 14.3193 12.8763C14.7354 12.8329 15.1118 12.9278 15.4935 13.0876C15.8533 13.2383 16.2672 13.469 16.7589 13.7432L18.0944 14.4876C18.5136 14.7212 18.8309 15.0973 18.9285 15.5695C19.0271 16.0467 18.8817 16.5263 18.5604 16.9205C17.3946 18.3508 15.5269 19.2615 13.5675 18.8663C12.3631 18.6233 11.1748 18.2186 9.73757 17.3943C6.84977 15.7381 4.26054 13.1475 2.60631 10.263C1.78205 8.82579 1.37729 7.63746 1.13433 6.43308C0.739087 4.47372 1.64978 2.60599 3.08009 1.44024C3.47428 1.11895 3.9539 0.973476 4.43107 1.0721Z" fill="white"/>
</svg>
