<svg width="18" height="18" viewBox="0 0 18 18" fill="none" xmlns="http://www.w3.org/2000/svg">
<path d="M3.43107 0.072099C3.90331 0.169703 4.27939 0.486985 4.51305 0.906178L5.2574 2.24155C5.53157 2.73339 5.7623 3.14729 5.91297 3.5071C6.07281 3.88878 6.16774 4.26516 6.12434 4.6813C6.08095 5.09743 5.91041 5.44613 5.67526 5.78662C5.45359 6.1076 5.14242 6.46499 4.77267 6.88968L3.6785 8.1465C3.48243 8.37172 3.38439 8.48433 3.37543 8.62508C3.36647 8.76583 3.44682 8.88605 3.60752 9.12649C4.97718 11.1757 6.82313 13.0223 8.87404 14.3931C9.11448 14.5538 9.2347 14.6342 9.37545 14.6252C9.5162 14.6163 9.62882 14.5182 9.85404 14.3222L11.1109 13.2279C11.5356 12.8582 11.893 12.547 12.214 12.3253C12.5545 12.0902 12.9032 11.9197 13.3193 11.8763C13.7354 11.8329 14.1118 11.9278 14.4935 12.0876C14.8533 12.2383 15.2672 12.469 15.7589 12.7432L17.0944 13.4876C17.5136 13.7212 17.8309 14.0973 17.9285 14.5695C18.0271 15.0467 17.8817 15.5263 17.5604 15.9205C16.3946 17.3508 14.5269 18.2615 12.5675 17.8663C11.3631 17.6233 10.1748 17.2186 8.73757 16.3943C5.84977 14.7381 3.26054 12.1475 1.60631 9.26304C0.782049 7.82579 0.377287 6.63746 0.134334 5.43308C-0.260913 3.47372 0.649783 1.60599 2.08009 0.440237C2.47428 0.118952 2.9539 -0.0265236 3.43107 0.072099Z" fill="white"/>
</svg>
