<svg width="18" height="18" viewBox="0 0 18 18" fill="none" xmlns="http://www.w3.org/2000/svg">
<path fill-rule="evenodd" clip-rule="evenodd" d="M9 0C4.02944 0 0 4.02944 0 9C0 13.9706 4.02944 18 9 18C13.9706 18 18 13.9706 18 9C18 4.02944 13.9706 0 9 0ZM9.8377 5.65098C9.8377 5.1886 9.46287 4.81377 9.00049 4.81377C8.53811 4.81377 8.16328 5.1886 8.16328 5.65098V8.99982C8.16328 9.22186 8.25149 9.4348 8.40849 9.59181L10.0829 11.2662C10.4099 11.5932 10.94 11.5932 11.2669 11.2662C11.5939 10.9393 11.5939 10.4092 11.2669 10.0822L9.8377 8.65303V5.65098Z" fill="#A1ABB2"/>
</svg>
