<svg width="150" height="20" viewBox="0 0 150 20" fill="none" xmlns="http://www.w3.org/2000/svg">
<path fill-rule="evenodd" clip-rule="evenodd" d="M6.28558 11.4941C8.27769 9.50197 11.722 9.50197 13.7141 11.4941C14.0395 11.8195 14.0395 12.3472 13.7141 12.6726C13.3887 12.998 12.861 12.998 12.5356 12.6726C11.1944 11.3314 8.80532 11.3314 7.46409 12.6726C7.13866 12.998 6.61102 12.998 6.28558 12.6726C5.96014 12.3472 5.96014 11.8195 6.28558 11.4941Z" fill="#A1ABB2"/>
<path fill-rule="evenodd" clip-rule="evenodd" d="M4.04987 8.94314C7.68262 5.91585 12.5049 5.89446 15.9689 8.9592C16.3136 9.26416 16.3458 9.79082 16.0408 10.1355C15.7359 10.4802 15.2092 10.5124 14.8645 10.2075C12.0492 7.71663 8.15076 7.69524 5.11684 10.2235C4.76328 10.5181 4.23781 10.4704 3.94317 10.1168C3.64853 9.76325 3.6963 9.23778 4.04987 8.94314Z" fill="#A1ABB2"/>
<path fill-rule="evenodd" clip-rule="evenodd" d="M9.99993 2.91666C13.0791 2.91664 16.1149 4.11926 18.8709 6.44653C19.2226 6.74346 19.2669 7.26923 18.97 7.62087C18.673 7.97251 18.1473 8.01686 17.7956 7.71993C15.2885 5.60286 12.6226 4.58331 9.99994 4.58332C7.37732 4.58333 4.71137 5.60291 2.20425 7.72002C1.85262 8.01695 1.32685 7.97261 1.02991 7.62097C0.732975 7.26934 0.777318 6.74357 1.12895 6.44663C3.885 4.11931 6.92081 2.91667 9.99993 2.91666Z" fill="#A1ABB2"/>
<path fill-rule="evenodd" clip-rule="evenodd" d="M8.125 15C8.125 13.9645 8.96447 13.125 10 13.125C11.0355 13.125 11.875 13.9645 11.875 15C11.875 16.0355 11.0355 16.875 10 16.875C8.96447 16.875 8.125 16.0355 8.125 15Z" fill="#A1ABB2"/>
<path fill-rule="evenodd" clip-rule="evenodd" d="M40.2713 8.85424C40.2713 8.394 40.6444 8.0209 41.1046 8.0209H42.2627C42.6614 8.0209 43.0269 8.03472 43.3463 8.0814C43.6618 8.12751 43.9932 8.21364 44.2846 8.39903C44.9732 8.837 45.0814 9.56762 45.0599 10.2022C45.0256 11.2175 44.778 12.3872 44.0187 13.3968C43.247 14.4228 42.0182 15.1886 40.2073 15.5082C39.7541 15.5882 39.3218 15.2857 39.2418 14.8324C39.1618 14.3792 39.4644 13.9469 39.9176 13.8669C41.3893 13.6071 42.2121 13.026 42.6867 12.395C43.1736 11.7476 43.367 10.9503 43.3942 10.1459C43.4011 9.94264 43.3838 9.84006 43.3713 9.79562C43.3382 9.7807 43.2606 9.75325 43.1053 9.73055C42.9059 9.70141 42.6355 9.68757 42.2627 9.68757H41.1046C40.6444 9.68757 40.2713 9.31448 40.2713 8.85424Z" fill="#A1ABB2"/>
<path d="M28.552 6.63675C28.8985 6.58023 29.3089 6.56256 29.7786 6.56256L38.6799 6.56256C39.1496 6.56256 39.5599 6.58023 39.9065 6.63675C40.2516 6.69302 40.5844 6.79536 40.8608 7.00157C41.4598 7.44833 41.5329 8.16981 41.5196 8.86625C41.4581 12.0895 41.0461 15.4275 37.9883 17.7784C37.531 18.13 37.0877 18.3559 36.5857 18.4873C36.0965 18.6154 35.5797 18.6459 34.9954 18.6459H33.4631C32.8788 18.6459 32.362 18.6154 31.8727 18.4873C31.3708 18.3559 30.9275 18.13 30.4702 17.7784C27.4124 15.4275 27.0004 12.0895 26.9389 8.86625C26.9256 8.16981 26.9986 7.44833 27.5976 7.00157C27.8741 6.79536 28.2069 6.69302 28.552 6.63675Z" fill="#A1ABB2"/>
<path d="M36.0286 1.74883C36.2709 2.14011 36.1501 2.65375 35.7589 2.89606C35.7075 2.92785 35.5248 3.09511 35.3506 3.44558C35.1871 3.77452 35.0637 4.20275 35.0637 4.68757C35.0637 5.14781 34.6906 5.52091 34.2304 5.52091C33.7701 5.52091 33.397 5.14781 33.397 4.68757C33.397 3.9224 33.5907 3.24172 33.8581 2.7037C34.1149 2.18721 34.477 1.72948 34.8814 1.47909C35.2727 1.23678 35.7863 1.35755 36.0286 1.74883Z" fill="#A1ABB2"/>
<path d="M38.2722 2.99883C38.4878 3.34694 38.416 3.79188 38.122 4.05646C38.1065 4.08919 38.0861 4.13979 38.0647 4.20803C38.0081 4.38922 37.9793 4.5814 37.9793 4.68757C37.9793 5.14781 37.6062 5.52091 37.146 5.52091C36.6858 5.52091 36.3127 5.14781 36.3127 4.68757C36.3127 4.37708 36.3789 4.0148 36.4741 3.71043C36.5227 3.5549 36.5872 3.38776 36.671 3.23436C36.742 3.10423 36.8818 2.87967 37.125 2.72909C37.5162 2.48678 38.0299 2.60755 38.2722 2.99883Z" fill="#A1ABB2"/>
<path d="M32.7904 2.87124C33.0974 3.20265 33.0837 3.7168 32.7637 4.03144L32.7565 4.04005C32.7426 4.05718 32.7163 4.0926 32.6876 4.14587C32.6317 4.24938 32.5627 4.42697 32.5627 4.68757C32.5627 5.14781 32.1896 5.52091 31.7293 5.52091C31.2691 5.52091 30.896 5.14781 30.896 4.68757C30.896 4.11484 31.0519 3.66744 31.2209 3.35428C31.3046 3.19921 31.4743 2.95455 31.6127 2.82626C31.9504 2.51348 32.4776 2.53362 32.7904 2.87124Z" fill="#A1ABB2"/>
<path fill-rule="evenodd" clip-rule="evenodd" d="M66.1868 1.58767C65.1218 1.45831 63.7688 1.45831 62.0426 1.45832H61.9572C60.231 1.45831 58.878 1.45831 57.8131 1.58767C56.7248 1.71987 55.8537 1.99508 55.138 2.60638C54.9471 2.7694 54.7693 2.94718 54.6063 3.13805C53.995 3.85379 53.7198 4.72484 53.5876 5.81314C53.4582 6.87812 53.4582 8.23108 53.4583 9.95727V9.95728V10.0427V10.0427C53.4582 11.7689 53.4582 13.1219 53.5876 14.1868C53.7198 15.2751 53.995 16.1462 54.6063 16.8619C54.7693 17.0528 54.9471 17.2306 55.138 17.3936C55.8537 18.0049 56.7248 18.2801 57.8131 18.4123C58.878 18.5417 60.231 18.5417 61.9572 18.5417H62.0426C63.7688 18.5417 65.1218 18.5417 66.1868 18.4123C67.2751 18.2801 68.1461 18.0049 68.8619 17.3936C69.0527 17.2306 69.2305 17.0528 69.3935 16.8619C70.0048 16.1462 70.28 15.2751 70.4122 14.1868C70.5416 13.1219 70.5416 11.7689 70.5416 10.0427V9.95728C70.5416 8.23108 70.5416 6.87812 70.4122 5.81314C70.28 4.72484 70.0048 3.85379 69.3935 3.13805C69.2305 2.94718 69.0527 2.7694 68.8619 2.60638C68.1461 1.99508 67.2751 1.71987 66.1868 1.58767ZM60.6669 5.00033L60.5994 5.00017C60.3646 4.99931 60.076 4.99826 59.8186 5.08191C59.3112 5.24677 58.9134 5.64458 58.7485 6.15197C58.6649 6.40941 58.6659 6.69804 58.6668 6.93285L58.6669 7.00033L58.6669 15.0003C58.6669 15.4606 59.04 15.8337 59.5003 15.8337C59.9605 15.8337 60.3336 15.4606 60.3336 15.0003V11.667H62.8336C64.6745 11.667 66.1669 10.1746 66.1669 8.33367C66.1669 6.49272 64.6745 5.00033 62.8336 5.00033L60.6669 5.00033ZM62.8336 10.0003L60.3336 10.0003L60.3336 7.00033C60.3336 6.83614 60.3339 6.74637 60.3375 6.68115L60.338 6.67143L60.3477 6.67086C60.413 6.66729 60.5027 6.667 60.6669 6.667L62.8336 6.667C63.7541 6.667 64.5003 7.41319 64.5003 8.33367C64.5003 9.25414 63.7541 10.0003 62.8336 10.0003Z" fill="#A1ABB2"/>
<g opacity="0.3">
<path fill-rule="evenodd" clip-rule="evenodd" d="M83.0001 13.3333C83.4603 13.3333 83.8334 13.7064 83.8334 14.1667V16.6667C83.8334 17.1269 83.4603 17.5 83.0001 17.5C82.5398 17.5 82.1667 17.1269 82.1667 16.6667V14.1667C82.1667 13.7064 82.5398 13.3333 83.0001 13.3333ZM93.0001 13.3333C93.4603 13.3333 93.8334 13.7064 93.8334 14.1667V16.6667C93.8334 17.1269 93.4603 17.5 93.0001 17.5C92.5398 17.5 92.1667 17.1269 92.1667 16.6667V14.1667C92.1667 13.7064 92.5398 13.3333 93.0001 13.3333Z" fill="#A1ABB2"/>
<path fill-rule="evenodd" clip-rule="evenodd" d="M85.4616 2.5L90.5384 2.5C91.2846 2.49999 91.9004 2.49998 92.4001 2.54527C92.9199 2.59238 93.3953 2.69368 93.8333 2.94658C94.3401 3.23914 94.7609 3.65994 95.0534 4.16667C95.3063 4.6047 95.4076 5.08012 95.4547 5.59986C95.5 6.09961 95.5 6.71542 95.5 7.46166V7.5C95.5 7.96024 95.1269 8.33333 94.6667 8.33333C94.2064 8.33333 93.8333 7.96024 93.8333 7.5C93.8333 6.70582 93.8325 6.1659 93.7949 5.7503C93.7582 5.34616 93.6921 5.14209 93.61 5C93.4638 4.74664 93.2534 4.53624 93 4.38996C92.8579 4.30792 92.6538 4.24176 92.2497 4.20513C91.8341 4.16747 91.2942 4.16667 90.5 4.16667L85.5 4.16667C84.7058 4.16667 84.1659 4.16747 83.7503 4.20513C83.3462 4.24176 83.1421 4.30792 83 4.38996C82.7466 4.53624 82.5362 4.74664 82.39 5C82.3079 5.14209 82.2418 5.34616 82.2051 5.7503C82.1675 6.1659 82.1667 6.70582 82.1667 7.5C82.1667 7.96024 81.7936 8.33333 81.3333 8.33333C80.8731 8.33333 80.5 7.96024 80.5 7.5L80.5 7.46163C80.5 6.71541 80.5 6.0996 80.5453 5.59986C80.5924 5.08012 80.6937 4.6047 80.9466 4.16667C81.2391 3.65994 81.6599 3.23914 82.1667 2.94658C82.6047 2.69368 83.0801 2.59238 83.5999 2.54527C84.0996 2.49998 84.7154 2.49999 85.4616 2.5Z" fill="#A1ABB2"/>
<path fill-rule="evenodd" clip-rule="evenodd" d="M88.0001 2.5C88.4603 2.5 88.8334 2.8731 88.8334 3.33333L88.8334 11.6667C88.8334 12.1269 88.4603 12.5 88.0001 12.5C87.5398 12.5 87.1667 12.1269 87.1667 11.6667L87.1667 3.33333C87.1667 2.8731 87.5398 2.5 88.0001 2.5Z" fill="#A1ABB2"/>
<path d="M79.0417 9.16667C79.0417 7.90101 80.0678 6.875 81.3334 6.875C82.5991 6.875 83.6251 7.90101 83.6251 9.16667V10.8333C83.6251 10.9214 83.6279 10.9867 83.632 11.0347C83.6801 11.0389 83.7453 11.0417 83.8334 11.0417L92.1667 11.0417C92.2548 11.0417 92.3201 11.0389 92.3681 11.0347C92.3723 10.9867 92.3751 10.9214 92.3751 10.8333V9.16667C92.3751 7.90101 93.4011 6.875 94.6667 6.875C95.9324 6.875 96.9584 7.90101 96.9584 9.16667C96.9584 9.87891 96.6333 10.5147 96.1251 10.9344C96.1251 11.6576 96.1234 12.2625 96.0585 12.7454C95.9882 13.2686 95.8334 13.7409 95.4539 14.1205C95.0743 14.5 94.602 14.6547 94.0788 14.7251C93.5832 14.7917 92.9588 14.7917 92.2101 14.7917H92.2101L83.7901 14.7917H83.79C83.0413 14.7917 82.417 14.7917 81.9213 14.7251C81.3982 14.6547 80.9259 14.5 80.5463 14.1205C80.1667 13.7409 80.012 13.2686 79.9417 12.7454C79.8768 12.2625 79.8751 11.6576 79.8751 10.9344C79.3669 10.5147 79.0417 9.8789 79.0417 9.16667Z" fill="#A1ABB2"/>
</g>
<g opacity="0.3">
<path fill-rule="evenodd" clip-rule="evenodd" d="M111.5 0.833344C111.96 0.833344 112.333 1.20644 112.333 1.66668V3.54168H112.03C111.523 3.54166 111.068 3.54165 110.667 3.55835V1.66668C110.667 1.20644 111.04 0.833344 111.5 0.833344ZM113.167 15.5926L113.167 18.3333C113.167 18.7936 113.54 19.1667 114 19.1667C114.46 19.1667 114.833 18.7936 114.833 18.3333V15.5926C114.567 15.6145 114.289 15.625 114 15.625C113.711 15.625 113.433 15.6145 113.167 15.5926ZM117.333 3.55836V1.66668C117.333 1.20644 116.96 0.833344 116.5 0.833344C116.04 0.833344 115.667 1.20644 115.667 1.66668V3.54168H115.97C116.476 3.54166 116.931 3.54165 117.333 3.55836Z" fill="#A1ABB2"/>
<path fill-rule="evenodd" clip-rule="evenodd" d="M112.03 3.54169H115.97H115.97C116.82 3.54166 117.525 3.54164 118.077 3.6207C118.657 3.70387 119.178 3.88814 119.564 4.34432C119.949 4.7989 120.048 5.34429 120.041 5.93371C120.035 6.49634 119.927 7.20144 119.798 8.05461L119.354 10.9756C119.129 12.4585 118.686 13.6595 117.786 14.4747C116.879 15.2955 115.621 15.625 114 15.625C112.379 15.625 111.121 15.2955 110.214 14.4747C109.313 13.6595 108.87 12.4585 108.645 10.9756L108.202 8.05462C108.072 7.20144 107.965 6.49635 107.959 5.93371C107.952 5.34429 108.051 4.7989 108.436 4.34431C108.822 3.88814 109.343 3.70387 109.923 3.6207C110.474 3.54164 111.18 3.54166 112.03 3.54169H112.03ZM115.029 7.51653C115.268 7.2677 115.26 6.87205 115.011 6.63282C114.763 6.39358 114.367 6.40136 114.128 6.65018L112.385 8.46256C112.114 8.74474 112.051 9.1427 112.214 9.48183C112.364 9.79665 112.667 9.98366 112.983 10.0373L114.026 10.2145C114.096 10.2264 114.12 10.3151 114.065 10.3607L112.572 11.6029C112.307 11.8237 112.271 12.2178 112.492 12.4831C112.712 12.7484 113.107 12.7846 113.372 12.5638L115.534 10.7649C115.843 10.5076 115.96 10.0997 115.811 9.72537C115.672 9.37914 115.353 9.17183 115.017 9.1149L113.861 8.91861C113.795 8.90741 113.769 8.82694 113.815 8.7787L115.029 7.51653Z" fill="#A1ABB2"/>
</g>
<path fill-rule="evenodd" clip-rule="evenodd" d="M140.001 1.04166C139.551 1.04166 139.186 1.40628 139.186 1.85606C139.186 2.30584 139.551 2.67045 140.001 2.67045C144.049 2.67045 147.33 5.95202 147.33 10C147.33 10.4498 147.695 10.8144 148.145 10.8144C148.594 10.8144 148.959 10.4498 148.959 10C148.959 5.05246 144.948 1.04166 140.001 1.04166ZM137.334 3.43296C137.755 3.27552 137.969 2.80633 137.811 2.38501C137.654 1.96368 137.185 1.74976 136.763 1.9072C136.571 1.97899 136.382 2.05728 136.197 2.1418C135.788 2.32835 135.607 2.81136 135.794 3.22063C135.98 3.6299 136.463 3.81045 136.872 3.62389C137.023 3.55508 137.177 3.49137 137.334 3.43296ZM134.941 4.91868C135.269 4.61119 135.286 4.09581 134.979 3.76756C134.671 3.4393 134.156 3.42246 133.828 3.72995C133.689 3.85955 133.555 3.99356 133.425 4.13177C133.118 4.4597 133.134 4.97509 133.462 5.28293C133.79 5.59077 134.305 5.57449 134.613 5.24656C134.719 5.13378 134.828 5.02443 134.941 4.91868ZM133.302 7.20729C133.487 6.79734 133.305 6.315 132.895 6.12994C132.485 5.94488 132.003 6.1272 131.818 6.53714C131.741 6.70713 131.669 6.88001 131.603 7.05557C131.445 7.47653 131.658 7.94621 132.079 8.10462C132.5 8.26303 132.969 8.05019 133.128 7.62923C133.181 7.48637 133.24 7.34567 133.302 7.20729ZM132.674 9.92676C132.688 9.47719 132.335 9.10143 131.885 9.08746C131.436 9.07349 131.06 9.42661 131.046 9.87617C131.04 10.0627 131.04 10.2501 131.046 10.4366C131.06 10.8862 131.436 11.2392 131.886 11.2252C132.335 11.2112 132.688 10.8354 132.674 10.3858C132.669 10.2333 132.669 10.0797 132.674 9.92676ZM148.093 13.2365C148.25 12.8152 148.036 12.346 147.615 12.1886C147.193 12.0311 146.724 12.245 146.567 12.6664C146.504 12.8343 146.435 12.9992 146.36 13.1609C146.172 13.5692 146.35 14.0531 146.758 14.2418C147.166 14.4305 147.65 14.2524 147.839 13.8441C147.931 13.6455 148.015 13.4429 148.093 13.2365ZM133.133 12.6956C132.974 12.275 132.504 12.0631 132.083 12.2224C131.662 12.3817 131.45 12.8518 131.61 13.2725C131.677 13.45 131.75 13.6248 131.828 13.7967C132.014 14.2061 132.497 14.387 132.906 14.2008C133.316 14.0145 133.497 13.5317 133.311 13.1222C133.247 12.9824 133.188 12.8401 133.133 12.6956ZM146.294 16.1457C146.601 15.8162 146.582 15.3009 146.252 14.9947C145.923 14.6886 145.407 14.7075 145.101 15.037C144.984 15.163 144.863 15.2847 144.737 15.402C144.408 15.7088 144.39 16.2241 144.697 16.553C145.004 16.8819 145.519 16.8997 145.848 16.5929C146.002 16.4492 146.151 16.3 146.294 16.1457ZM134.625 15.0771C134.316 14.7499 133.801 14.7349 133.474 15.0435C133.147 15.3522 133.132 15.8676 133.44 16.1948C133.563 16.3247 133.689 16.451 133.82 16.5733C134.147 16.8812 134.663 16.865 134.971 16.5371C135.279 16.2092 135.262 15.6938 134.935 15.3859C134.828 15.2861 134.725 15.1831 134.625 15.0771ZM143.464 18.1815C143.874 17.9963 144.056 17.5139 143.871 17.104C143.686 16.6941 143.204 16.5119 142.794 16.6971C142.656 16.7591 142.517 16.817 142.375 16.8704C141.954 17.0291 141.742 17.4989 141.9 17.9198C142.059 18.3406 142.529 18.5532 142.95 18.3945C143.124 18.3288 143.295 18.2577 143.464 18.1815ZM136.903 16.7009C136.493 16.5163 136.011 16.6992 135.827 17.1093C135.642 17.5195 135.825 18.0016 136.235 18.1862C136.397 18.2593 136.562 18.3276 136.73 18.3909C137.15 18.5501 137.62 18.3381 137.78 17.9174C137.939 17.4968 137.727 17.0267 137.306 16.8675C137.17 16.816 137.036 16.7604 136.903 16.7009ZM139.59 17.3248C139.14 17.3093 138.763 17.6611 138.748 18.1106C138.732 18.5601 139.084 18.9371 139.534 18.9526C139.74 18.9597 139.948 18.9597 140.155 18.9526C140.605 18.9371 140.957 18.5601 140.941 18.1106C140.926 17.6611 140.549 17.3093 140.099 17.3248C139.93 17.3306 139.759 17.3306 139.59 17.3248Z" fill="#A1ABB2"/>
<path d="M140 4.16666C140.46 4.16666 140.833 4.53975 140.833 4.99999V8.09001C141.314 8.29999 141.7 8.68606 141.91 9.16666H143.333C143.794 9.16666 144.167 9.53975 144.167 9.99999C144.167 10.4602 143.794 10.8333 143.333 10.8333H141.91C141.589 11.5691 140.854 12.0833 140 12.0833C138.849 12.0833 137.917 11.1506 137.917 9.99999C137.917 9.14569 138.431 8.41149 139.167 8.09001V4.99999C139.167 4.53975 139.54 4.16666 140 4.16666Z" fill="#A1ABB2"/>
</svg>
