<svg width="24" height="24" viewBox="0 0 24 24" fill="none" xmlns="http://www.w3.org/2000/svg">
<path d="M19.5329 21.4615C19.3878 21.4615 19.3153 21.4615 19.2703 21.5066C19.2252 21.5516 19.2252 21.6241 19.2252 21.7692V22.1399C19.2252 22.4312 19.4104 22.6975 19.7035 22.8278C19.715 22.8329 19.7265 22.8381 19.738 22.8432C19.9159 22.9226 20.0887 22.9998 20.2948 22.9998H21.6168C21.8229 22.9998 21.9957 22.9226 22.1736 22.8432C22.1851 22.8381 22.1966 22.8329 22.2081 22.8278C22.5012 22.6975 22.6864 22.4312 22.6864 22.1399V21.4563C22.6864 21.2597 22.6864 21.1613 22.6322 21.1153C22.578 21.0692 22.4685 21.0871 22.2495 21.1228C22.2278 21.1264 22.2058 21.1296 22.1837 21.1326L19.7864 21.4499C19.7278 21.4576 19.6688 21.4615 19.6098 21.4615H19.5329Z" fill="#A1ABB2"/>
<path d="M10.4568 21.4616C10.6018 21.4616 10.6744 21.4616 10.7194 21.5067C10.7645 21.5518 10.7645 21.6243 10.7645 21.7693V22.14C10.7645 22.4314 10.5793 22.6977 10.2861 22.828C10.2746 22.8331 10.2631 22.8382 10.2517 22.8433C10.0738 22.9228 9.90097 23 9.6949 23H8.37284C8.16677 23 7.99395 22.9228 7.81607 22.8433C7.8046 22.8382 7.79311 22.8331 7.78159 22.828C7.48844 22.6977 7.30326 22.4314 7.30326 22.14V21.4564C7.30326 21.2598 7.30326 21.1615 7.35747 21.1154C7.41168 21.0693 7.52116 21.0872 7.74012 21.123C7.76188 21.1265 7.78382 21.1298 7.80594 21.1327L10.2033 21.45C10.2618 21.4578 10.3208 21.4616 10.3799 21.4616H10.4568Z" fill="#A1ABB2"/>
<path fill-rule="evenodd" clip-rule="evenodd" d="M7.38464 12.0789C7.57461 11.699 8.03662 11.545 8.41657 11.7349L9.18572 12.1195C9.56567 12.3095 9.71968 12.7715 9.5297 13.1514C9.33973 13.5314 8.87772 13.6854 8.49777 13.4954L7.72861 13.1108C7.34867 12.9209 7.19466 12.4589 7.38464 12.0789ZM22.6054 12.0789C22.7953 12.4589 22.6413 12.9209 22.2614 13.1108L21.4922 13.4954C21.1123 13.6854 20.6503 13.5314 20.4603 13.1514C20.2703 12.7715 20.4243 12.3095 20.8043 12.1195L21.5734 11.7349C21.9534 11.545 22.4154 11.699 22.6054 12.0789Z" fill="#A1ABB2"/>
<path fill-rule="evenodd" clip-rule="evenodd" d="M21.4122 13.0346C21.7344 13.3681 22.1325 13.7802 22.4633 14.2228C22.8789 14.7792 23.2634 15.477 23.2634 16.2681V18.9376C23.2634 19.6123 22.807 20.273 22.0829 20.3688L19.6856 20.6861C19.6605 20.6894 19.6352 20.6911 19.6099 20.6911L10.38 20.6911C10.3547 20.6911 10.3294 20.6894 10.3043 20.6861L7.90695 20.3688C7.18284 20.273 6.72648 19.6123 6.72648 18.9376L6.72648 16.2681C6.72648 15.477 7.11094 14.7792 7.52657 14.2228C7.8573 13.7802 8.25528 13.3683 8.57749 13.0348C8.64293 12.967 8.65738 12.9078 8.68789 12.8194L9.51269 10.4294C9.66631 9.98412 9.80096 9.59386 9.95007 9.28425C10.1113 8.94955 10.3189 8.64281 10.6557 8.40832C10.9926 8.17382 11.3595 8.08056 11.7392 8.03868C12.0904 7.99995 12.5163 7.99997 13.0022 8H16.9876C17.4735 7.99997 17.8994 7.99995 18.2506 8.03868C18.6303 8.08056 18.9973 8.17382 19.3341 8.40832C19.6709 8.64281 19.8786 8.94955 20.0398 9.28425C20.1889 9.59386 20.3235 9.9841 20.4771 10.4293L21.302 12.8194C21.3307 12.9027 21.3506 12.9709 21.4122 13.0346ZM10.9797 12.6149C10.6846 12.6149 10.5371 12.6149 10.4681 12.5181C10.3991 12.4213 10.4472 12.2818 10.5434 12.0029L10.9167 10.9212C11.0864 10.4296 11.1949 10.1186 11.3038 9.89253C11.4421 9.60527 11.5926 9.50633 11.9086 9.47149C12.165 9.44321 12.5048 9.44212 13.0413 9.44212H16.9485C17.4851 9.44212 17.8248 9.44321 18.0813 9.47149C18.3972 9.50633 18.5477 9.60527 18.6861 9.89253C18.7949 10.1186 18.9034 10.4296 19.0731 10.9212L19.4464 12.0029C19.5427 12.2818 19.5908 12.4213 19.5218 12.5181C19.4528 12.6149 19.3052 12.6149 19.0101 12.6149L10.9797 12.6149ZM8.33062 15.1757C8.04566 15.0332 7.69915 15.1488 7.55667 15.4337C7.41419 15.7187 7.52969 16.0652 7.81465 16.2077L8.96839 16.7845C9.25335 16.927 9.59986 16.8115 9.74234 16.5265C9.88482 16.2416 9.76931 15.8951 9.48435 15.7526L8.33062 15.1757ZM22.1754 16.2077C22.4604 16.0652 22.5759 15.7187 22.4334 15.4337C22.2909 15.1488 21.9444 15.0332 21.6595 15.1757L20.5057 15.7526C20.2208 15.8951 20.1053 16.2416 20.2478 16.5265C20.3902 16.8115 20.7367 16.927 21.0217 16.7845L22.1754 16.2077ZM15.7404 17.8068H14.2499C13.4933 17.8068 13.115 17.8068 12.822 18.0171C12.5946 18.1804 12.4591 18.4414 12.2784 18.8984C12.199 19.0991 12.1593 19.1995 12.205 19.2723C12.2506 19.3451 12.3544 19.3451 12.5619 19.3451H17.4284C17.6359 19.3451 17.7397 19.3451 17.7854 19.2723C17.831 19.1995 17.7913 19.0991 17.712 18.8984C17.5313 18.4414 17.3958 18.1804 17.1683 18.0171C16.8754 17.8068 16.497 17.8068 15.7404 17.8068Z" fill="#A1ABB2"/>
<path d="M7.5 0.625C7.67536 0.625 7.8273 0.746523 7.86583 0.917592L8.1352 2.11338C8.33185 2.98639 9.01361 3.66815 9.88662 3.8648L11.0824 4.13417C11.2535 4.1727 11.375 4.32464 11.375 4.5C11.375 4.67536 11.2535 4.8273 11.0824 4.86583L9.88662 5.1352C9.01361 5.33185 8.33185 6.01361 8.1352 6.88662L7.86583 8.08241C7.8273 8.25348 7.67536 8.375 7.5 8.375C7.32464 8.375 7.1727 8.25348 7.13417 8.08241L6.8648 6.88662C6.66815 6.01361 5.98639 5.33185 5.11338 5.1352L3.91759 4.86583C3.74652 4.8273 3.625 4.67536 3.625 4.5C3.625 4.32464 3.74652 4.1727 3.91759 4.13417L5.11338 3.8648C5.98639 3.66815 6.66815 2.98639 6.8648 2.11338L7.13417 0.917592C7.1727 0.746523 7.32464 0.625 7.5 0.625Z" fill="#A1ABB2"/>
<path d="M3.5 5.625C3.67536 5.625 3.8273 5.74652 3.86583 5.91759L4.05824 6.77173C4.18961 7.35494 4.64506 7.81039 5.22827 7.94176L6.08241 8.13417C6.25348 8.1727 6.375 8.32464 6.375 8.5C6.375 8.67536 6.25348 8.8273 6.08241 8.86583L5.22827 9.05824C4.64506 9.18961 4.18961 9.64506 4.05824 10.2283L3.86583 11.0824C3.8273 11.2535 3.67536 11.375 3.5 11.375C3.32464 11.375 3.1727 11.2535 3.13417 11.0824L2.94176 10.2283C2.81039 9.64506 2.35494 9.18961 1.77173 9.05824L0.917592 8.86583C0.746523 8.8273 0.625 8.67536 0.625 8.5C0.625 8.32464 0.746523 8.1727 0.917592 8.13417L1.77173 7.94176C2.35494 7.81039 2.81039 7.35494 2.94176 6.77173L3.13417 5.91759C3.1727 5.74652 3.32464 5.625 3.5 5.625Z" fill="#A1ABB2"/>
</svg>
