<svg width="14" height="18" viewBox="0 0 14 18" fill="none" xmlns="http://www.w3.org/2000/svg">
<path fill-rule="evenodd" clip-rule="evenodd" d="M7 0.0416679C3.26854 0.0416679 0.125 3.18215 0.125 6.98909C0.125 10.8893 3.3396 13.4954 6.02256 15.1895L6.03334 15.1963L6.04439 15.2026C6.33514 15.37 6.66448 15.4583 7 15.4583C7.33552 15.4583 7.66486 15.37 7.95561 15.2026L7.96524 15.1971L7.97468 15.1912C10.6681 13.5101 13.875 10.8761 13.875 6.98909C13.875 3.18215 10.7315 0.0416679 7 0.0416679ZM7 4C5.38917 4 4.08333 5.30584 4.08333 6.91667C4.08333 8.5275 5.38917 9.83333 7 9.83333C8.61083 9.83333 9.91667 8.5275 9.91667 6.91667C9.91667 5.30584 8.61083 4 7 4Z" fill="#A1ABB2"/>
<path d="M2.00008 14.625C2.43441 14.625 2.79114 14.9573 2.82992 15.3815C2.84434 15.3973 2.8689 15.4211 2.90882 15.4526C3.05746 15.5697 3.32419 15.7116 3.72807 15.8463C4.52712 16.1126 5.68401 16.2917 7.00008 16.2917C8.31615 16.2917 9.47304 16.1126 10.2721 15.8463C10.676 15.7116 10.9427 15.5697 11.0913 15.4526C11.1313 15.4211 11.1558 15.3973 11.1702 15.3815C11.209 14.9573 11.5657 14.625 12.0001 14.625C12.4603 14.625 12.8334 14.9981 12.8334 15.4583C12.8334 16.0532 12.471 16.4873 12.123 16.7616C11.7656 17.0432 11.3001 17.2604 10.7991 17.4274C9.78855 17.7643 8.44544 17.9583 7.00008 17.9583C5.55473 17.9583 4.21161 17.7643 3.20102 17.4274C2.70008 17.2604 2.23458 17.0432 1.87719 16.7616C1.5292 16.4873 1.16675 16.0532 1.16675 15.4583C1.16675 14.9981 1.53984 14.625 2.00008 14.625Z" fill="#A1ABB2"/>
</svg>
