<svg width="24" height="24" viewBox="0 0 24 24" fill="none" xmlns="http://www.w3.org/2000/svg">
<path d="M4.5576 21.7958C4.85897 22.0972 5.38364 22.0612 5.72945 21.7153L9.38856 18.0562L12.05 20.7176C12.3958 21.0634 12.9565 21.0634 13.3023 20.7176L14.3394 19.6806C14.6852 19.3348 14.6852 18.7741 14.3394 18.4282L5.57204 9.66085C5.22622 9.31504 4.66553 9.31504 4.31969 9.66085L3.28263 10.6979C2.93681 11.0437 2.93681 11.6044 3.28263 11.9503L5.94403 14.6117L2.28491 18.2708C1.93909 18.6166 1.90304 19.1413 2.20441 19.4427L4.5576 21.7958ZM4.22338 18.4781C4.58202 18.1195 5.16351 18.1195 5.52215 18.4781C5.88081 18.8368 5.88081 19.4183 5.52215 19.7769C5.16351 20.1355 4.58202 20.1355 4.22338 19.7769C3.86471 19.4183 3.86471 18.8368 4.22338 18.4781Z" fill="#A1ABB2"/>
<path d="M5.88922 8.55118C5.89107 8.56402 5.89324 8.57683 5.8957 8.58959C5.8987 8.60505 5.9023 8.62042 5.90621 8.63574C5.94094 8.77193 6.01144 8.90087 6.118 9.00745L8.33668 11.2261L14.9927 17.8822C15.052 17.9415 15.1182 17.9896 15.1887 18.0267C15.2122 18.039 15.2362 18.0502 15.2605 18.06C15.2971 18.0749 15.3345 18.0869 15.3725 18.0962C15.3993 18.1027 15.4264 18.1078 15.4536 18.1115C15.476 18.1147 15.4986 18.1168 15.5212 18.118C15.5235 18.1182 15.5258 18.1183 15.5282 18.1185C15.5405 18.119 15.5529 18.1194 15.5652 18.1194C15.5656 18.1194 15.566 18.1193 15.5664 18.1193C15.5832 18.1193 15.6 18.1186 15.6168 18.1175C15.6212 18.1172 15.6257 18.1169 15.6302 18.1165C15.6473 18.1152 15.6644 18.1135 15.6814 18.111C15.7456 18.1017 15.8089 18.0848 15.8698 18.0601C15.8942 18.0502 15.9181 18.0391 15.9416 18.0267C15.9534 18.0206 15.965 18.0141 15.9765 18.0073C16.0197 17.9818 16.0609 17.952 16.0997 17.9178C16.1126 17.9065 16.1253 17.8946 16.1376 17.8822L18.7388 15.2811L21.34 12.6798L21.7632 12.2566C21.776 12.2438 21.7882 12.2308 21.8 12.2174C21.8821 12.1237 21.9388 12.0156 21.9704 11.9019C22.0462 11.6297 21.9772 11.3257 21.7632 11.1117L21.6614 11.0098L13.6566 3.00496L12.8885 2.23688C12.8688 2.21712 12.8482 2.1986 12.8271 2.18131C12.8059 2.16402 12.784 2.14796 12.7615 2.13314C12.7279 2.11092 12.6929 2.09146 12.657 2.07478C12.633 2.06366 12.6086 2.05379 12.5839 2.04514C12.5591 2.03648 12.5341 2.02908 12.5088 2.02292C12.4709 2.01364 12.4323 2.00718 12.3936 2.00346C12.3815 2.00229 12.3693 2.00146 12.3571 2.00084C12.3531 2.00063 12.3491 2.00059 12.3452 2.00046C12.3369 2.00016 12.3287 1.9999 12.3204 1.99986C12.319 1.99986 12.3175 1.99976 12.316 1.99976C12.3137 1.99976 12.3114 1.99995 12.3091 1.99997C12.2976 2.00007 12.286 2.00042 12.2744 2.00101C12.2709 2.0012 12.2673 2.00133 12.2638 2.00154C12.2495 2.00246 12.2353 2.00371 12.221 2.00537C12.2185 2.00567 12.2159 2.00609 12.2134 2.00641C12.2013 2.00794 12.1894 2.00975 12.1774 2.01181C12.1735 2.01247 12.1697 2.01315 12.1658 2.01388C12.1516 2.01656 12.1374 2.01947 12.1233 2.02292C12.114 2.02517 12.1049 2.02779 12.0957 2.03038C11.9667 2.06672 11.845 2.13544 11.7435 2.2369L11.6429 2.33751L6.118 7.86246C6.04195 7.93851 5.98439 8.026 5.94494 8.1193C5.94145 8.12755 5.93813 8.13584 5.93492 8.14418C5.92384 8.17302 5.91444 8.20232 5.90678 8.23201C5.89904 8.262 5.89296 8.29232 5.88871 8.32286C5.88533 8.34719 5.88296 8.37163 5.8818 8.3961C5.88118 8.40903 5.88086 8.42199 5.88086 8.43494C5.88086 8.44789 5.88116 8.46084 5.8818 8.47377C5.88303 8.49965 5.8855 8.52549 5.88922 8.55118ZM12.1947 2.68801C12.2363 2.64647 12.2836 2.63775 12.3161 2.63775C12.3485 2.63775 12.3959 2.64647 12.4374 2.68801L21.3121 11.5628C21.3537 11.6043 21.3624 11.6517 21.3624 11.6841C21.3624 11.7165 21.3537 11.7639 21.3121 11.8054L20.5516 12.5659C20.0776 12.5111 19.5946 12.5198 19.141 12.6637C18.7762 12.7795 18.4891 12.9909 18.2024 13.2386C17.9002 13.4996 17.5698 13.7763 17.163 13.8457C16.8188 13.9044 16.419 13.8599 16.1746 13.5791C15.9188 13.2851 15.8361 12.8799 15.9334 12.503C16.0328 12.1182 16.2616 11.7949 16.4909 11.4773C16.7289 11.1477 16.9772 10.822 17.177 10.4671C17.3699 10.1242 17.8072 9.46507 17.5644 9.06538C17.3099 8.64637 16.6746 8.82486 16.3318 9.01728C15.6249 9.41482 15.1193 10.058 14.6351 10.6921C14.4974 10.8723 14.3623 11.0551 14.2186 11.2305C14.0884 11.3895 13.9375 11.5344 13.7396 11.603C13.3353 11.7431 12.9471 11.4976 12.8932 11.0772C12.8405 10.6656 13.1578 10.349 13.4297 10.0881C13.7362 9.79425 14.0609 9.51994 14.3651 9.22376C14.6528 8.94372 14.9378 8.64375 15.1315 8.28864C15.1981 8.16649 15.2622 8.02445 15.2846 7.88137C14.709 7.89445 14.1304 7.90663 13.5855 7.68748C13.2373 7.54744 12.9222 7.31697 12.7345 6.98492C12.5714 6.69631 12.5029 6.36912 12.4961 6.0396C12.4826 5.38104 12.66 4.72768 12.5366 4.07097C12.4531 3.6271 12.287 3.20944 12.0445 2.83819L12.1947 2.68801Z" fill="#A1ABB2"/>
</svg>
