<svg width="21" height="20" viewBox="0 0 21 20" fill="none" xmlns="http://www.w3.org/2000/svg">
<path fill-rule="evenodd" clip-rule="evenodd" d="M14.4941 13.9941C14.8195 13.6686 15.3472 13.6686 15.6726 13.9941L19.4226 17.7441C19.748 18.0695 19.748 18.5972 19.4226 18.9226C19.0972 19.248 18.5695 19.248 18.2441 18.9226L14.4941 15.1726C14.1686 14.8472 14.1686 14.3195 14.4941 13.9941Z" fill="#A1ABB2"/>
<path fill-rule="evenodd" clip-rule="evenodd" d="M1.3335 9.16668C1.3335 4.5643 5.06446 0.833344 9.66683 0.833344C14.2692 0.833344 18.0002 4.5643 18.0002 9.16668C18.0002 13.769 14.2692 17.5 9.66683 17.5C5.06446 17.5 1.3335 13.769 1.3335 9.16668ZM9.66683 2.50001C5.98493 2.50001 3.00016 5.48478 3.00016 9.16668C3.00016 12.8486 5.98493 15.8333 9.66683 15.8333C13.3487 15.8333 16.3335 12.8486 16.3335 9.16668C16.3335 5.48478 13.3487 2.50001 9.66683 2.50001Z" fill="#A1ABB2"/>
</svg>
