<svg width="14" height="14" viewBox="0 0 14 14" fill="none" xmlns="http://www.w3.org/2000/svg">
<path d="M6.99325 0.333313C3.31325 0.333313 0.333252 3.31998 0.333252 6.99998C0.333252 10.68 3.31325 13.6666 6.99325 13.6666C10.6799 13.6666 13.6666 10.68 13.6666 6.99998C13.6666 3.31998 10.6799 0.333313 6.99325 0.333313ZM11.6133 4.33331H9.64659C9.43325 3.49998 9.12659 2.69998 8.72659 1.95998C9.95325 2.37998 10.9733 3.23331 11.6133 4.33331ZM6.99992 1.69331C7.55325 2.49331 7.98659 3.37998 8.27325 4.33331H5.72659C6.01325 3.37998 6.44659 2.49331 6.99992 1.69331ZM1.83992 8.33331C1.73325 7.90665 1.66659 7.45998 1.66659 6.99998C1.66659 6.53998 1.73325 6.09331 1.83992 5.66665H4.09325C4.03992 6.10665 3.99992 6.54665 3.99992 6.99998C3.99992 7.45331 4.03992 7.89331 4.09325 8.33331H1.83992ZM2.38659 9.66665H4.35325C4.56659 10.5 4.87325 11.3 5.27325 12.04C4.04659 11.62 3.02659 10.7733 2.38659 9.66665ZM4.35325 4.33331H2.38659C3.02659 3.22665 4.04659 2.37998 5.27325 1.95998C4.87325 2.69998 4.56659 3.49998 4.35325 4.33331ZM6.99992 12.3066C6.44659 11.5066 6.01325 10.62 5.72659 9.66665H8.27325C7.98659 10.62 7.55325 11.5066 6.99992 12.3066ZM8.55992 8.33331H5.43992C5.37992 7.89331 5.33325 7.45331 5.33325 6.99998C5.33325 6.54665 5.37992 6.09998 5.43992 5.66665H8.55992C8.61992 6.09998 8.66659 6.54665 8.66659 6.99998C8.66659 7.45331 8.61992 7.89331 8.55992 8.33331ZM8.72659 12.04C9.12659 11.3 9.43325 10.5 9.64659 9.66665H11.6133C10.9733 10.7666 9.95325 11.62 8.72659 12.04ZM9.90659 8.33331C9.95992 7.89331 9.99992 7.45331 9.99992 6.99998C9.99992 6.54665 9.95992 6.10665 9.90659 5.66665H12.1599C12.2666 6.09331 12.3333 6.53998 12.3333 6.99998C12.3333 7.45998 12.2666 7.90665 12.1599 8.33331H9.90659Z" fill="#8C969B"/>
</svg>
