<svg width="20" height="20" viewBox="0 0 20 20" fill="none" xmlns="http://www.w3.org/2000/svg">
<path fill-rule="evenodd" clip-rule="evenodd" d="M4.60034 5.59416C6.02171 4.48451 7.85795 3.54167 10.0001 3.54167C12.1422 3.54167 13.9785 4.48451 15.3998 5.59416C16.8225 6.7048 17.874 8.01645 18.4622 8.84127L18.5066 8.90312C18.7176 9.19652 18.9584 9.5315 18.9584 10C18.9584 10.4685 18.7176 10.8035 18.5066 11.0969L18.4622 11.1587C17.874 11.9836 16.8225 13.2952 15.3998 14.4059C13.9785 15.5155 12.1422 16.4583 10.0001 16.4583C7.85795 16.4583 6.02171 15.5155 4.60034 14.4059C3.17769 13.2952 2.12614 11.9836 1.53792 11.1587L1.49357 11.0969L1.49357 11.0969C1.28261 10.8035 1.04175 10.4685 1.04175 10C1.04175 9.5315 1.28261 9.19652 1.49357 8.90312L1.53792 8.84127C2.12613 8.01646 3.17769 6.7048 4.60034 5.59416ZM7.08342 10C7.08342 11.6108 8.38925 12.9167 10.0001 12.9167C11.6109 12.9167 12.9167 11.6108 12.9167 10C12.9167 8.38917 11.6109 7.08334 10.0001 7.08334C8.38925 7.08334 7.08342 8.38917 7.08342 10Z" fill="#A1ABB2"/>
</svg>
